<?xml version="1.0" standalone="no"?>
<!DOCTYPE svg PUBLIC "-//W3C//DTD SVG 20010904//EN"
 "http://www.w3.org/TR/2001/REC-SVG-20010904/DTD/svg10.dtd">
<svg version="1.0" xmlns="http://www.w3.org/2000/svg"
 width="512.000000pt" height="512.000000pt" viewBox="0 0 512.000000 512.000000"
 preserveAspectRatio="xMidYMid meet">
<metadata>
Created by potrace 1.11, written by Peter Selinger 2001-2013
</metadata>
<g transform="translate(0.000000,512.000000) scale(0.100000,-0.100000)"
fill="#000000" stroke="none">
<path d="M460 5105 c-162 -40 -302 -144 -383 -285 -22 -39 -37 -78 -65 -165
-4 -11 -8 -634 -9 -1385 -2 -1503 -5 -1429 61 -1564 80 -162 237 -282 421
-317 31 -6 802 -10 2080 -10 2006 0 2031 0 2108 20 112 29 191 75 272 156 80
81 127 162 155 267 18 70 19 128 19 1423 1 1495 4 1408 -65 1551 -64 130 -187
238 -335 292 l-74 27 -2065 2 c-1700 1 -2075 -1 -2120 -12z m4153 -399 c47
-23 92 -77 104 -125 5 -20 9 -515 9 -1156 l-1 -1120 -30 -44 c-19 -29 -48 -54
-79 -70 l-48 -25 -2007 0 c-1792 1 -2010 2 -2042 16 -50 22 -77 46 -102 93
l-22 40 0 1120 c-1 758 2 1131 9 1155 15 49 84 115 132 127 23 5 832 9 2039 8
1933 0 2001 -1 2038 -19z"/>
<path d="M220 1180 c-89 -6 -129 -21 -167 -62 -52 -55 -53 -64 -52 -530 0
-411 1 -435 20 -473 23 -47 51 -74 99 -98 33 -15 193 -16 2452 -14 l2416 2 44
31 c24 18 53 51 65 75 22 43 22 50 23 476 0 471 0 476 -57 535 -61 64 122 59
-2434 61 -1278 1 -2362 0 -2409 -3z m4432 -392 c95 -54 136 -188 89 -291 -81
-179 -331 -186 -417 -12 -55 114 -20 240 88 308 62 39 165 37 240 -5z m-1701
-16 c1 -21 1 -152 0 -169 -1 -10 -264 -13 -1279 -13 l-1278 0 2 93 c0 50 2 95
2 99 1 4 576 7 1277 7 1192 0 1275 -1 1276 -17z"/>
</g>
</svg>
